# xmcd CD database file
#
# Track frame offsets:
#	150
#	19820
#	42493
#	59628
#	81424
#	100227
#	125750
#
# Disc length: 2032 seconds
#
# Revision: 0
# Processed by: cddbd v1.5.1PL0 Copyright (c) Steve Scherf et al.
# Submitted via: CDex 1.51
#
DISCID=6307ee07
DTITLE=カラサウンド - 惑星電話回線
DYEAR=2004
DGENRE=New Age
TTITLE0=man-satellite
TTITLE1=karasound
TTITLE2=earth rising
TTITLE3=plant
TTITLE4=e-transport
TTITLE5=news
TTITLE6=early morning
EXTD=YEAR: 2004
EXTT0=
EXTT1=
EXTT2=
EXTT3=
EXTT4=
EXTT5=
EXTT6=
PLAYORDER=
